<svg xmlns="http://www.w3.org/2000/svg" class="railroad" width="438" height="698" viewBox="0 0 438 698"><style>svg.railroad{background:#fff;font-family:monospace;font-size:13px}.rr-line{stroke:#334;stroke-width:2;fill:none}.rr-cap{fill:#334}.rr-term{fill:#e8f0ff;stroke:#334;stroke-width:2}.rr-nonterm{fill:#fff7e8;stroke:#334;stroke-width:2}.rr-label{fill:#111;text-anchor:middle;dominant-baseline:middle}.rr-comment{fill:#666;font-style:italic;text-anchor:middle;dominant-baseline:middle}.rr-title{fill:#113;font-weight:bold;font-size:15px}.rr-legend{fill:#333;font-size:12px}.rr-legend-tok{fill:#113;font-weight:bold}a:hover .rr-nonterm{fill:#ffe6b3;cursor:pointer}</style><g><g id="xml"><text class="rr-title" x="16" y="31">xml</text><circle class="rr-cap" cx="123.5" cy="42" r="3"/><path class="rr-line" d="M123.5 42V56"/><path class="rr-line" d="M123.5 56V74"/><path class="rr-line" d="M123.5 74V92"/><path class="rr-line" d="M75 92H172"/><path class="rr-line" d="M75 226H172"/><path class="rr-line" d="M123.5 226V244"/><path class="rr-line" d="M75 92V110"/><path class="rr-line" d="M75 110V128"/><path class="rr-line" d="M34 128H116"/><path class="rr-line" d="M34 190H116"/><path class="rr-line" d="M75 190V208"/><path class="rr-line" d="M34 128V146"/><rect class="rr-term" x="16" y="146" width="36" height="26" rx="13" ry="13"/><text class="rr-label" x="34" y="159">TX</text><path class="rr-line" d="M34 172V190"/><path class="rr-line" d="M116 128V146"/><a href="#element"><rect class="rr-nonterm" x="78" y="146" width="76" height="26" rx="4" ry="4"/><text class="rr-label" x="116" y="159">element</text></a><path class="rr-line" d="M116 172V190"/><path class="rr-line" d="M75 208V226"/><path class="rr-line" d="M172 92V110"/><path class="rr-line" d="M172 110V122"/><path class="rr-line" d="M172 122V226"/><path class="rr-line" d="M123.5 244V262"/><path class="rr-line" d="M123.5 253H208"/><path class="rr-line" d="M123.5 65H208"/><path class="rr-line" d="M208 172V253"/><path class="rr-line" d="M208 65V146"/><rect class="rr-term" x="190" y="146" width="36" height="26" rx="13" ry="13"/><text class="rr-label" x="208" y="159">TX</text><path class="rr-line" d="M123.5 262V276"/><circle class="rr-cap" cx="123.5" cy="276" r="3"/></g><g id="element"><text class="rr-title" x="16" y="325">element</text><circle class="rr-cap" cx="81" cy="336" r="3"/><path class="rr-line" d="M81 336V350"/><path class="rr-line" d="M81 350V368"/><path class="rr-line" d="M38 368H124"/><path class="rr-line" d="M38 474H124"/><path class="rr-line" d="M81 474V492"/><path class="rr-line" d="M38 368V386"/><rect class="rr-term" x="16" y="386" width="44" height="26" rx="13" ry="13"/><text class="rr-label" x="38" y="399">XSC</text><path class="rr-line" d="M38 412V474"/><path class="rr-line" d="M124 368V386"/><rect class="rr-term" x="102" y="386" width="44" height="26" rx="13" ry="13"/><text class="rr-label" x="124" y="399">XOP</text><path class="rr-line" d="M124 412V430"/><a href="#content"><rect class="rr-nonterm" x="86" y="430" width="76" height="26" rx="4" ry="4"/><text class="rr-label" x="124" y="443">content</text></a><path class="rr-line" d="M124 456V474"/><path class="rr-line" d="M81 492V510"/><rect class="rr-term" x="59" y="510" width="44" height="26" rx="13" ry="13"/><text class="rr-label" x="81" y="523">XCL</text><path class="rr-line" d="M81 536V550"/><circle class="rr-cap" cx="81" cy="550" r="3"/></g><g id="content"><text class="rr-title" x="284" y="31">content</text><circle class="rr-cap" cx="314" cy="42" r="3"/><path class="rr-line" d="M314 42V56"/><path class="rr-line" d="M314 56V74"/><a href="#child"><rect class="rr-nonterm" x="284" y="74" width="60" height="26" rx="4" ry="4"/><text class="rr-label" x="314" y="87">child</text></a><path class="rr-line" d="M314 100V118"/><path class="rr-line" d="M314 109H354"/><path class="rr-line" d="M314 65H354"/><path class="rr-line" d="M354 65V109"/><path class="rr-line" d="M314 118V132"/><circle class="rr-cap" cx="314" cy="132" r="3"/></g><g id="child"><text class="rr-title" x="284" y="181">child</text><circle class="rr-cap" cx="343" cy="192" r="3"/><path class="rr-line" d="M343 192V206"/><path class="rr-line" d="M343 206V224"/><path class="rr-line" d="M302 224H384"/><path class="rr-line" d="M302 286H384"/><path class="rr-line" d="M343 286V304"/><path class="rr-line" d="M302 224V242"/><rect class="rr-term" x="284" y="242" width="36" height="26" rx="13" ry="13"/><text class="rr-label" x="302" y="255">TX</text><path class="rr-line" d="M302 268V286"/><path class="rr-line" d="M384 224V242"/><a href="#element"><rect class="rr-nonterm" x="346" y="242" width="76" height="26" rx="4" ry="4"/><text class="rr-label" x="384" y="255">element</text></a><path class="rr-line" d="M384 268V286"/><path class="rr-line" d="M343 304V318"/><circle class="rr-cap" cx="343" cy="318" r="3"/></g><text class="rr-title" x="16" y="599">Tokens</text><text class="rr-legend" x="16" y="621"><tspan class="rr-legend-tok">TX</tspan>  —  bare text</text><text class="rr-legend" x="16" y="639"><tspan class="rr-legend-tok">XCL</tspan>  —  XCL token</text><text class="rr-legend" x="16" y="657"><tspan class="rr-legend-tok">XOP</tspan>  —  XOP token</text><text class="rr-legend" x="16" y="675"><tspan class="rr-legend-tok">XSC</tspan>  —  XSC token</text></g></svg>