<svg xmlns="http://www.w3.org/2000/svg" class="railroad" width="446" height="1026" viewBox="0 0 446 1026"><style>svg.railroad{background:#fff;font-family:monospace;font-size:13px}.rr-line{stroke:#334;stroke-width:2;fill:none}.rr-cap{fill:#334}.rr-term{fill:#e8f0ff;stroke:#334;stroke-width:2}.rr-nonterm{fill:#fff7e8;stroke:#334;stroke-width:2}.rr-label{fill:#111;text-anchor:middle;dominant-baseline:middle}.rr-comment{fill:#666;font-style:italic;text-anchor:middle;dominant-baseline:middle}.rr-title{fill:#113;font-weight:bold;font-size:15px}a:hover .rr-nonterm{fill:#ffe6b3;cursor:pointer}</style><g><g id="xml"><text class="rr-title" x="16" y="31">xml</text><circle class="rr-cap" cx="123.5" cy="42" r="3"/><path class="rr-line" d="M123.5 42V56"/><path class="rr-line" d="M123.5 56V74"/><path class="rr-line" d="M123.5 74V92"/><path class="rr-line" d="M75 92H172"/><path class="rr-line" d="M75 226H172"/><path class="rr-line" d="M123.5 226V244"/><path class="rr-line" d="M75 92V110"/><path class="rr-line" d="M75 110V128"/><path class="rr-line" d="M34 128H116"/><path class="rr-line" d="M34 190H116"/><path class="rr-line" d="M75 190V208"/><path class="rr-line" d="M34 128V146"/><rect class="rr-term" x="16" y="146" width="36" height="26" rx="13" ry="13"/><text class="rr-label" x="34" y="159">TX</text><path class="rr-line" d="M34 172V190"/><path class="rr-line" d="M116 128V146"/><a href="#element"><rect class="rr-nonterm" x="78" y="146" width="76" height="26" rx="4" ry="4"/><text class="rr-label" x="116" y="159">element</text></a><path class="rr-line" d="M116 172V190"/><path class="rr-line" d="M75 208V226"/><path class="rr-line" d="M172 92V110"/><path class="rr-line" d="M172 110V122"/><path class="rr-line" d="M172 122V226"/><path class="rr-line" d="M123.5 244V262"/><path class="rr-line" d="M123.5 253H208"/><path class="rr-line" d="M123.5 65H208"/><path class="rr-line" d="M208 172V253"/><path class="rr-line" d="M208 65V146"/><rect class="rr-term" x="190" y="146" width="36" height="26" rx="13" ry="13"/><text class="rr-label" x="208" y="159">TX</text><path class="rr-line" d="M123.5 262V276"/><circle class="rr-cap" cx="123.5" cy="276" r="3"/></g><g id="val"><text class="rr-title" x="16" y="325">val</text><circle class="rr-cap" cx="112" cy="336" r="3"/><path class="rr-line" d="M112 336V350"/><path class="rr-line" d="M112 350V368"/><path class="rr-line" d="M38 368H186"/><path class="rr-line" d="M38 430H186"/><path class="rr-line" d="M112 430V448"/><path class="rr-line" d="M38 368V386"/><a href="#map"><rect class="rr-nonterm" x="16" y="386" width="44" height="26" rx="4" ry="4"/><text class="rr-label" x="38" y="399">map</text></a><path class="rr-line" d="M38 412V430"/><path class="rr-line" d="M112 368V386"/><a href="#list"><rect class="rr-nonterm" x="86" y="386" width="52" height="26" rx="4" ry="4"/><text class="rr-label" x="112" y="399">list</text></a><path class="rr-line" d="M112 412V430"/><path class="rr-line" d="M186 368V386"/><rect class="rr-term" x="164" y="386" width="44" height="26" rx="13" ry="13"/><text class="rr-label" x="186" y="399">VAL</text><path class="rr-line" d="M186 412V430"/><path class="rr-line" d="M112 448V462"/><circle class="rr-cap" cx="112" cy="462" r="3"/></g><g id="map"><text class="rr-title" x="16" y="511">map</text><circle class="rr-cap" cx="64" cy="522" r="3"/><path class="rr-line" d="M64 522V536"/><rect class="rr-term" x="46" y="536" width="36" height="26" rx="13" ry="13"/><text class="rr-label" x="64" y="549">OB</text><path class="rr-line" d="M64 562V580"/><path class="rr-line" d="M64 580V598"/><path class="rr-line" d="M42 598H86"/><path class="rr-line" d="M42 660H86"/><path class="rr-line" d="M64 660V678"/><path class="rr-line" d="M42 598V616"/><a href="#pair"><rect class="rr-nonterm" x="16" y="616" width="52" height="26" rx="4" ry="4"/><text class="rr-label" x="42" y="629">pair</text></a><path class="rr-line" d="M42 642V660"/><path class="rr-line" d="M86 598V616"/><path class="rr-line" d="M86 616V628"/><path class="rr-line" d="M86 628V660"/><path class="rr-line" d="M64 678V696"/><rect class="rr-term" x="46" y="696" width="36" height="26" rx="13" ry="13"/><text class="rr-label" x="64" y="709">CB</text><path class="rr-line" d="M64 722V736"/><circle class="rr-cap" cx="64" cy="736" r="3"/></g><g id="list"><text class="rr-title" x="16" y="785">list</text><circle class="rr-cap" cx="112" cy="796" r="3"/><path class="rr-line" d="M112 796V810"/><path class="rr-line" d="M112 810V828"/><path class="rr-line" d="M42 828H182"/><path class="rr-line" d="M42 934H182"/><path class="rr-line" d="M112 934V952"/><path class="rr-line" d="M42 828V846"/><a href="#elem"><rect class="rr-nonterm" x="16" y="846" width="52" height="26" rx="4" ry="4"/><text class="rr-label" x="42" y="859">elem</text></a><path class="rr-line" d="M42 872V934"/><path class="rr-line" d="M112 828V846"/><rect class="rr-term" x="94" y="846" width="36" height="26" rx="13" ry="13"/><text class="rr-label" x="112" y="859">OS</text><path class="rr-line" d="M112 872V934"/><path class="rr-line" d="M182 828V846"/><rect class="rr-term" x="164" y="846" width="36" height="26" rx="13" ry="13"/><text class="rr-label" x="182" y="859">OS</text><path class="rr-line" d="M182 872V890"/><a href="#elem"><rect class="rr-nonterm" x="156" y="890" width="52" height="26" rx="4" ry="4"/><text class="rr-label" x="182" y="903">elem</text></a><path class="rr-line" d="M182 916V934"/><path class="rr-line" d="M112 952V970"/><rect class="rr-term" x="94" y="970" width="36" height="26" rx="13" ry="13"/><text class="rr-label" x="112" y="983">CS</text><path class="rr-line" d="M112 996V1010"/><circle class="rr-cap" cx="112" cy="1010" r="3"/></g><g id="pair"><text class="rr-title" x="284" y="31">pair</text><circle class="rr-cap" cx="306" cy="42" r="3"/><path class="rr-line" d="M306 42V56"/><path class="rr-line" d="M306 56V74"/><rect class="rr-term" x="284" y="74" width="44" height="26" rx="13" ry="13"/><text class="rr-label" x="306" y="87">KEY</text><path class="rr-line" d="M306 100V118"/><rect class="rr-term" x="288" y="118" width="36" height="26" rx="13" ry="13"/><text class="rr-label" x="306" y="131">CL</text><path class="rr-line" d="M306 144V162"/><a href="#val"><rect class="rr-nonterm" x="284" y="162" width="44" height="26" rx="4" ry="4"/><text class="rr-label" x="306" y="175">val</text></a><path class="rr-line" d="M306 188V206"/><path class="rr-line" d="M306 197H356"/><path class="rr-line" d="M306 65H356"/><path class="rr-line" d="M356 144V197"/><path class="rr-line" d="M356 65V118"/><rect class="rr-term" x="338" y="118" width="36" height="26" rx="13" ry="13"/><text class="rr-label" x="356" y="131">CA</text><path class="rr-line" d="M306 206V220"/><circle class="rr-cap" cx="306" cy="220" r="3"/></g><g id="elem"><text class="rr-title" x="284" y="269">elem</text><circle class="rr-cap" cx="306" cy="280" r="3"/><path class="rr-line" d="M306 280V294"/><path class="rr-line" d="M306 294V312"/><a href="#val"><rect class="rr-nonterm" x="284" y="312" width="44" height="26" rx="4" ry="4"/><text class="rr-label" x="306" y="325">val</text></a><path class="rr-line" d="M306 338V356"/><path class="rr-line" d="M306 347H356"/><path class="rr-line" d="M306 303H356"/><path class="rr-line" d="M356 338V347"/><path class="rr-line" d="M356 303V312"/><rect class="rr-term" x="338" y="312" width="36" height="26" rx="13" ry="13"/><text class="rr-label" x="356" y="325">CA</text><path class="rr-line" d="M306 356V370"/><circle class="rr-cap" cx="306" cy="370" r="3"/></g><g id="element"><text class="rr-title" x="284" y="419">element</text><circle class="rr-cap" cx="349" cy="430" r="3"/><path class="rr-line" d="M349 430V444"/><path class="rr-line" d="M349 444V462"/><path class="rr-line" d="M306 462H392"/><path class="rr-line" d="M306 568H392"/><path class="rr-line" d="M349 568V586"/><path class="rr-line" d="M306 462V480"/><rect class="rr-term" x="284" y="480" width="44" height="26" rx="13" ry="13"/><text class="rr-label" x="306" y="493">XSC</text><path class="rr-line" d="M306 506V568"/><path class="rr-line" d="M392 462V480"/><rect class="rr-term" x="370" y="480" width="44" height="26" rx="13" ry="13"/><text class="rr-label" x="392" y="493">XOP</text><path class="rr-line" d="M392 506V524"/><a href="#content"><rect class="rr-nonterm" x="354" y="524" width="76" height="26" rx="4" ry="4"/><text class="rr-label" x="392" y="537">content</text></a><path class="rr-line" d="M392 550V568"/><path class="rr-line" d="M349 586V604"/><rect class="rr-term" x="327" y="604" width="44" height="26" rx="13" ry="13"/><text class="rr-label" x="349" y="617">XCL</text><path class="rr-line" d="M349 630V644"/><circle class="rr-cap" cx="349" cy="644" r="3"/></g><g id="content"><text class="rr-title" x="284" y="693">content</text><circle class="rr-cap" cx="314" cy="704" r="3"/><path class="rr-line" d="M314 704V718"/><path class="rr-line" d="M314 718V736"/><a href="#child"><rect class="rr-nonterm" x="284" y="736" width="60" height="26" rx="4" ry="4"/><text class="rr-label" x="314" y="749">child</text></a><path class="rr-line" d="M314 762V780"/><path class="rr-line" d="M314 771H354"/><path class="rr-line" d="M314 727H354"/><path class="rr-line" d="M354 727V771"/><path class="rr-line" d="M314 780V794"/><circle class="rr-cap" cx="314" cy="794" r="3"/></g><g id="child"><text class="rr-title" x="284" y="843">child</text><circle class="rr-cap" cx="343" cy="854" r="3"/><path class="rr-line" d="M343 854V868"/><path class="rr-line" d="M343 868V886"/><path class="rr-line" d="M302 886H384"/><path class="rr-line" d="M302 948H384"/><path class="rr-line" d="M343 948V966"/><path class="rr-line" d="M302 886V904"/><rect class="rr-term" x="284" y="904" width="36" height="26" rx="13" ry="13"/><text class="rr-label" x="302" y="917">TX</text><path class="rr-line" d="M302 930V948"/><path class="rr-line" d="M384 886V904"/><a href="#element"><rect class="rr-nonterm" x="346" y="904" width="76" height="26" rx="4" ry="4"/><text class="rr-label" x="384" y="917">element</text></a><path class="rr-line" d="M384 930V948"/><path class="rr-line" d="M343 966V980"/><circle class="rr-cap" cx="343" cy="980" r="3"/></g></g></svg>