<svg xmlns="http://www.w3.org/2000/svg" class="railroad" width="484" height="944" viewBox="0 0 484 944"><style>svg.railroad{background:#fff;font-family:monospace;font-size:13px}.rr-line{stroke:#334;stroke-width:2;fill:none}.rr-cap{fill:#334}.rr-term{fill:#e8f0ff;stroke:#334;stroke-width:2}.rr-nonterm{fill:#fff7e8;stroke:#334;stroke-width:2}.rr-label{fill:#111;text-anchor:middle;dominant-baseline:middle}.rr-comment{fill:#666;font-style:italic;text-anchor:middle;dominant-baseline:middle}.rr-title{fill:#113;font-weight:bold;font-size:15px}.rr-legend{fill:#333;font-size:12px}.rr-legend-tok{fill:#113;font-weight:bold}a:hover .rr-nonterm{fill:#ffe6b3;cursor:pointer}</style><g><g id="xml"><text class="rr-title" x="16" y="31">xml</text><circle class="rr-cap" cx="123.5" cy="42" r="3"/><path class="rr-line" d="M123.5 42V56"/><path class="rr-line" d="M123.5 56V74"/><path class="rr-line" d="M123.5 74V92"/><path class="rr-line" d="M75 92H172"/><path class="rr-line" d="M75 226H172"/><path class="rr-line" d="M123.5 226V244"/><path class="rr-line" d="M75 92V110"/><path class="rr-line" d="M75 110V128"/><path class="rr-line" d="M34 128H116"/><path class="rr-line" d="M34 190H116"/><path class="rr-line" d="M75 190V208"/><path class="rr-line" d="M34 128V146"/><rect class="rr-term" x="16" y="146" width="36" height="26" rx="13" ry="13"/><text class="rr-label" x="34" y="159">TX</text><path class="rr-line" d="M34 172V190"/><path class="rr-line" d="M116 128V146"/><a href="#element"><rect class="rr-nonterm" x="78" y="146" width="76" height="26" rx="4" ry="4"/><text class="rr-label" x="116" y="159">element</text></a><path class="rr-line" d="M116 172V190"/><path class="rr-line" d="M75 208V226"/><path class="rr-line" d="M172 92V110"/><path class="rr-line" d="M172 110V122"/><path class="rr-line" d="M172 122V226"/><path class="rr-line" d="M123.5 244V262"/><path class="rr-line" d="M123.5 253H208"/><path class="rr-line" d="M123.5 65H208"/><path class="rr-line" d="M208 172V253"/><path class="rr-line" d="M208 65V146"/><rect class="rr-term" x="190" y="146" width="36" height="26" rx="13" ry="13"/><text class="rr-label" x="208" y="159">TX</text><path class="rr-line" d="M123.5 262V276"/><circle class="rr-cap" cx="123.5" cy="276" r="3"/></g><g id="element"><text class="rr-title" x="16" y="325">element</text><circle class="rr-cap" cx="75" cy="336" r="3"/><path class="rr-line" d="M75 336V350"/><path class="rr-line" d="M75 350V368"/><path class="rr-line" d="M38 368H112"/><path class="rr-line" d="M38 474H112"/><path class="rr-line" d="M75 474V492"/><path class="rr-line" d="M38 368V386"/><rect class="rr-term" x="16" y="386" width="44" height="26" rx="13" ry="13"/><text class="rr-label" x="38" y="399">XSC</text><path class="rr-line" d="M38 412V474"/><path class="rr-line" d="M112 368V386"/><rect class="rr-term" x="90" y="386" width="44" height="26" rx="13" ry="13"/><text class="rr-label" x="112" y="399">XOP</text><path class="rr-line" d="M112 412V430"/><a href="#head"><rect class="rr-nonterm" x="86" y="430" width="52" height="26" rx="4" ry="4"/><text class="rr-label" x="112" y="443">head</text></a><path class="rr-line" d="M112 456V474"/><path class="rr-line" d="M75 492V510"/><rect class="rr-term" x="53" y="510" width="44" height="26" rx="13" ry="13"/><text class="rr-label" x="75" y="523">XCL</text><path class="rr-line" d="M75 536V550"/><circle class="rr-cap" cx="75" cy="550" r="3"/></g><g id="head"><text class="rr-title" x="16" y="599">head</text><circle class="rr-cap" cx="54" cy="610" r="3"/><path class="rr-line" d="M54 610V624"/><a href="#content"><rect class="rr-nonterm" x="16" y="624" width="76" height="26" rx="4" ry="4"/><text class="rr-label" x="54" y="637">content</text></a><path class="rr-line" d="M54 650V664"/><circle class="rr-cap" cx="54" cy="664" r="3"/></g><g id="content"><text class="rr-title" x="284" y="31">content</text><circle class="rr-cap" cx="326" cy="42" r="3"/><path class="rr-line" d="M326 42V56"/><a href="#children"><rect class="rr-nonterm" x="284" y="56" width="84" height="26" rx="4" ry="4"/><text class="rr-label" x="326" y="69">children</text></a><path class="rr-line" d="M326 82V96"/><circle class="rr-cap" cx="326" cy="96" r="3"/></g><g id="children"><text class="rr-title" x="284" y="145">children</text><circle class="rr-cap" cx="314" cy="156" r="3"/><path class="rr-line" d="M314 156V170"/><a href="#child"><rect class="rr-nonterm" x="284" y="170" width="60" height="26" rx="4" ry="4"/><text class="rr-label" x="314" y="183">child</text></a><path class="rr-line" d="M314 196V210"/><circle class="rr-cap" cx="314" cy="210" r="3"/></g><g id="child"><text class="rr-title" x="284" y="259">child</text><circle class="rr-cap" cx="391.5" cy="270" r="3"/><path class="rr-line" d="M391.5 270V284"/><path class="rr-line" d="M391.5 284V302"/><path class="rr-line" d="M391.5 302V320"/><path class="rr-line" d="M343 320H440"/><path class="rr-line" d="M343 454H440"/><path class="rr-line" d="M391.5 454V472"/><path class="rr-line" d="M343 320V338"/><path class="rr-line" d="M343 338V356"/><path class="rr-line" d="M302 356H384"/><path class="rr-line" d="M302 418H384"/><path class="rr-line" d="M343 418V436"/><path class="rr-line" d="M302 356V374"/><rect class="rr-term" x="284" y="374" width="36" height="26" rx="13" ry="13"/><text class="rr-label" x="302" y="387">TX</text><path class="rr-line" d="M302 400V418"/><path class="rr-line" d="M384 356V374"/><a href="#element"><rect class="rr-nonterm" x="346" y="374" width="76" height="26" rx="4" ry="4"/><text class="rr-label" x="384" y="387">element</text></a><path class="rr-line" d="M384 400V418"/><path class="rr-line" d="M343 436V454"/><path class="rr-line" d="M440 320V338"/><path class="rr-line" d="M440 338V350"/><path class="rr-line" d="M440 350V454"/><path class="rr-line" d="M391.5 472V490"/><path class="rr-line" d="M391.5 481H458"/><path class="rr-line" d="M391.5 293H458"/><path class="rr-line" d="M458 293V481"/><path class="rr-line" d="M391.5 490V504"/><circle class="rr-cap" cx="391.5" cy="504" r="3"/></g><text class="rr-title" x="16" y="713">Tokens</text><text class="rr-legend" x="16" y="735"><tspan class="rr-legend-tok">TX</tspan>  —  text / character data between tags (entities decoded)</text><text class="rr-legend" x="16" y="753"><tspan class="rr-legend-tok">XCL</tspan>  —  XML closing tag &lt;/name&gt;</text><text class="rr-legend" x="16" y="771"><tspan class="rr-legend-tok">XOP</tspan>  —  XML open tag &lt;name ...&gt;</text><text class="rr-legend" x="16" y="789"><tspan class="rr-legend-tok">XSC</tspan>  —  XML self-closing tag &lt;name .../&gt;</text><text class="rr-title" x="16" y="845">Ignored tokens</text><text class="rr-legend" x="16" y="867"><tspan class="rr-legend-tok">CM</tspan>  —  comment</text><text class="rr-legend" x="16" y="885"><tspan class="rr-legend-tok">LN</tspan>  —  newline (line break)</text><text class="rr-legend" x="16" y="903"><tspan class="rr-legend-tok">SP</tspan>  —  whitespace (spaces or tabs)</text><text class="rr-legend" x="16" y="921"><tspan class="rr-legend-tok">XIG</tspan>  —  ignored markup: comment, PI, or DOCTYPE</text></g></svg>